<svg width="77" height="65" viewBox="0 0 77 65" fill="none" xmlns="http://www.w3.org/2000/svg">
<path d="M74.7151 39.5589C73.0553 42.7863 70.1967 45.7371 67.5226 48.2268C64.9406 50.7165 58.3936 56.157 55.6272 58.3701C54.2441 57.2636 52.031 55.4193 49.8179 53.5751C48.4347 52.3763 47.0515 51.1776 45.8528 50.1632C45.0229 49.4255 44.2852 48.7801 43.7319 48.2268H43.6397C41.4266 46.1981 38.2914 43.1551 36.5394 39.7433C34.7874 36.2392 34.7874 33.104 36.5394 30.0611C38.2914 27.1103 41.7033 25.4505 45.5762 25.4505C49.1724 25.4505 52.3998 27.0181 54.2441 29.6L55.6272 31.5364L57.0104 29.5078C58.8547 26.8336 61.9899 25.266 65.5861 25.266C66.1394 25.266 66.6927 25.266 67.2459 25.3583C69.0902 25.6349 70.75 26.2804 72.041 27.2025C73.0553 27.9402 73.9774 28.8623 74.6229 29.9688C76.5593 33.0118 76.5593 36.147 74.7151 39.5589Z" fill="#BF2F32"/>
<path d="M70.5656 10.1433C72.5942 13.6473 73.5163 17.3358 73.3319 21.1165C71.7643 20.2866 70.0123 19.7333 68.168 19.5489C68.0758 17.2436 67.4304 14.9383 66.1394 12.7252C63.373 8.02242 58.117 5.16386 52.1232 5.16386C46.5905 5.16386 41.7033 7.65358 38.9369 11.8953L36.816 15.0305L34.6029 11.8953C31.7444 7.838 26.6727 5.34828 21.14 5.34828C15.2385 5.34828 10.0746 8.11463 7.30823 12.7252C4.54188 17.5202 4.54188 22.4997 7.30823 28.1246C9.98238 33.5651 14.8696 38.4523 18.2814 41.6797L18.3737 41.772C22.3388 45.7371 32.4821 54.3128 36.816 57.909C38.1992 56.8025 40.0434 55.2349 42.1643 53.3907C43.3631 54.405 44.654 55.6037 46.0372 56.8947C42.6254 59.8455 39.5824 62.3352 38.3836 63.2573L36.7238 64.5483L35.1562 63.2573C32.5743 61.2287 19.4802 50.2555 14.6852 45.4604C10.9967 41.9564 5.74063 36.6081 2.60543 30.4299C-0.898622 23.2374 -0.898622 16.4137 2.78985 10.1433C6.47833 3.87289 13.302 0.184417 21.14 0.184417C27.1338 0.184417 32.7587 2.48971 36.6316 6.36261C40.5045 2.30529 46.0372 -7.62939e-06 52.031 -7.62939e-06C59.9612 -7.62939e-06 66.8771 3.78068 70.5656 10.1433Z" fill="#BF2F32"/>
</svg>
