<svg width="370" height="65" viewBox="0 0 370 65" fill="none" xmlns="http://www.w3.org/2000/svg">
<g clip-path="url(#clip0_0_3)">
<path d="M74.7151 39.5589C73.0553 42.7863 70.1967 45.7371 67.5226 48.2268C64.9406 50.7165 58.3936 56.157 55.6272 58.3701C54.2441 57.2636 52.031 55.4193 49.8179 53.5751C48.4347 52.3763 47.0515 51.1776 45.8528 50.1632C45.0229 49.4255 44.2852 48.7801 43.7319 48.2268H43.6397C41.4266 46.1981 38.2914 43.1551 36.5394 39.7433C34.7874 36.2392 34.7874 33.104 36.5394 30.0611C38.2914 27.1103 41.7033 25.4505 45.5762 25.4505C49.1724 25.4505 52.3998 27.0181 54.2441 29.6L55.6272 31.5364L57.0104 29.5078C58.8547 26.8336 61.9899 25.266 65.5861 25.266C66.1394 25.266 66.6927 25.266 67.2459 25.3583C69.0902 25.6349 70.75 26.2804 72.041 27.2025C73.0553 27.9402 73.9774 28.8623 74.6229 29.9688C76.5593 33.0118 76.5593 36.147 74.7151 39.5589Z" fill="#BF2F32"/>
<path d="M70.5656 10.1433C72.5942 13.6473 73.5163 17.3358 73.3319 21.1165C71.7643 20.2866 70.0123 19.7333 68.168 19.5489C68.0758 17.2436 67.4304 14.9383 66.1394 12.7252C63.373 8.02242 58.117 5.16386 52.1232 5.16386C46.5905 5.16386 41.7033 7.65358 38.9369 11.8953L36.816 15.0305L34.6029 11.8953C31.7444 7.838 26.6727 5.34828 21.14 5.34828C15.2385 5.34828 10.0746 8.11463 7.30823 12.7252C4.54188 17.5202 4.54188 22.4997 7.30823 28.1246C9.98238 33.5651 14.8696 38.4523 18.2814 41.6797L18.3737 41.772C22.3388 45.7371 32.4821 54.3128 36.816 57.909C38.1992 56.8025 40.0434 55.2349 42.1643 53.3907C43.3631 54.405 44.654 55.6037 46.0372 56.8947C42.6254 59.8455 39.5824 62.3352 38.3836 63.2573L36.7238 64.5483L35.1562 63.2573C32.5743 61.2287 19.4802 50.2555 14.6852 45.4604C10.9967 41.9564 5.74063 36.6081 2.60543 30.4299C-0.898622 23.2374 -0.898622 16.4137 2.78985 10.1433C6.47833 3.87289 13.302 0.184417 21.14 0.184417C27.1338 0.184417 32.7587 2.48971 36.6316 6.36261C40.5045 2.30529 46.0372 -7.62939e-06 52.031 -7.62939e-06C59.9612 -7.62939e-06 66.8771 3.78068 70.5656 10.1433Z" fill="#BF2F32"/>
<path d="M109.414 22.5321C115.191 22.5321 123.269 26.8893 121.653 38.3941H103.882C104.763 41.0378 107.064 42.4086 110.149 42.4086C113.282 42.4086 114.261 41.7232 116.023 40.9888L120.283 45.1012C118.031 47.3042 114.995 48.9198 109.855 48.9198C103.539 48.9198 96 44.5627 96 35.7994C96 26.8893 103.637 22.5321 109.414 22.5321ZM109.414 29.1413C107.211 29.1413 104.959 30.4142 103.98 32.9599H114.799C114.016 30.4142 111.617 29.1413 109.414 29.1413ZM135.361 48.8219C130.612 48.8219 125.766 45.6397 125.766 37.5618V22.9727H133.501V37.0233C133.501 40.8909 134.823 42.1148 137.271 42.1148C140.746 42.1148 142.754 38.7368 143.243 37.2681V22.9727H150.978V48.4302H143.243V44.0241C142.754 45.248 140.159 48.8219 135.361 48.8219ZM168.358 41.9679C169.729 41.9679 170.708 41.7721 171.785 41.4784V47.8917C170.708 48.3813 168.946 48.724 166.351 48.724C162.092 48.724 158.518 47.3042 158.518 39.4712V29.3371H154.944V22.9727H158.518V17H166.253V22.9727H171.687V29.3371H166.253V39.4712C166.253 40.5972 166.547 41.9679 168.358 41.9679ZM188.528 22.5321C194.305 22.5321 202.383 26.8893 200.767 38.3941H182.996C183.877 41.0378 186.178 42.4086 189.263 42.4086C192.396 42.4086 193.375 41.7232 195.137 40.9888L199.397 45.1012C197.145 47.3042 194.109 48.9198 188.969 48.9198C182.653 48.9198 175.114 44.5627 175.114 35.7994C175.114 26.8893 182.751 22.5321 188.528 22.5321ZM188.528 29.1413C186.325 29.1413 184.073 30.4142 183.094 32.9599H193.913C193.13 30.4142 190.731 29.1413 188.528 29.1413ZM223.483 22.9727H231.219V48.4302H223.483V45.8845C223.141 46.7657 220.84 48.9198 216.923 48.9198C211.097 48.9198 204.39 44.7585 204.39 35.6525C204.39 26.8893 211.097 22.5321 216.923 22.5321C220.84 22.5321 223.141 24.7841 223.483 25.3227V22.9727ZM218.049 42.1148C221.231 42.1148 223.826 39.9118 223.826 35.6525C223.826 31.5402 221.231 29.3371 218.049 29.3371C214.72 29.3371 211.881 31.5891 211.881 35.6525C211.881 39.8628 214.72 42.1148 218.049 42.1148ZM270.237 22.5811C275.671 22.5811 280.469 26.106 280.469 34.7223V48.4302H272.734V34.9671C272.734 31.736 271.363 29.2881 267.789 29.2881C264.803 29.2881 262.796 31.9318 262.208 34.2817V48.4302H254.473V34.9671C254.473 31.736 252.466 29.2881 249.528 29.2881C246.346 29.2881 244.437 31.4422 243.947 34.2817V48.4302H236.212V22.9727H243.947V27.6236C244.045 26.4487 246.542 22.5811 251.536 22.5811C255.207 22.5811 258.732 24.5393 260.837 28.1132C261.425 26.7424 264.362 22.5811 270.237 22.5811ZM294.471 48.8219C289.722 48.8219 284.875 45.6397 284.875 37.5618V22.9727H292.61V37.0233C292.61 40.8909 293.932 42.1148 296.38 42.1148C299.856 42.1148 301.863 38.7368 302.353 37.2681V22.9727H310.088V48.4302H302.353V44.0241C301.863 45.248 299.268 48.8219 294.471 48.8219ZM324.383 48.8219C319.634 48.8219 314.788 45.6397 314.788 37.5618V22.9727H322.523V37.0233C322.523 40.8909 323.845 42.1148 326.293 42.1148C329.768 42.1148 331.776 38.7368 332.265 37.2681V22.9727H340V48.4302H332.265V44.0241C331.776 45.248 329.181 48.8219 324.383 48.8219ZM354.296 48.8219C349.547 48.8219 344.7 45.6397 344.7 37.5618V22.9727H352.435V37.0233C352.435 40.8909 353.757 42.1148 356.205 42.1148C359.681 42.1148 361.688 38.7368 362.178 37.2681V22.9727H369.913V48.4302H362.178V44.0241C361.688 45.248 359.094 48.8219 354.296 48.8219Z" fill="#BF2F32"/>
</g>
<defs>
<clipPath id="clip0_0_3">
<rect width="369.913" height="64.5483" fill="white"/>
</clipPath>
</defs>
</svg>
